<svg width="40" height="58" viewBox="0 0 40 58" fill="none" xmlns="http://www.w3.org/2000/svg">
<path d="M27.0729 30.8777C26.7109 31.1298 26.3338 31.4059 26.1173 31.5423C26.1773 31.2191 26.0352 30.6174 25.9431 30.3703C25.8492 30.1182 25.8128 29.0098 25.8111 28.971C25.8111 29.0412 26.4809 30.0405 27.0729 30.8777ZM27.0729 30.8777C27.4991 30.5819 27.905 30.3199 28.0082 30.3546C28.201 30.419 28.2213 31.0116 27.5981 31.6034C27.7351 31.7853 27.8433 31.9225 27.9059 31.9869M27.9059 31.9869C27.4898 32.0324 27.2082 31.9125 27.2082 31.9125C27.3596 31.8117 27.4577 31.7365 27.5668 31.6324M27.9059 31.9869C28.212 31.9539 28.6176 31.8063 29.0125 31.4798C29.9436 30.7095 30.2303 30.8599 30.3013 30.9186C30.3453 30.955 30.4519 31.1756 30.1237 31.5236C30.1237 31.5236 29.6696 32.0493 29.2679 32.2203C29.2679 32.2203 29.7094 32.0179 30.3571 31.4533C30.725 31.1236 30.9001 30.9178 30.9939 30.9186C31.0751 30.9202 31.1973 31.0893 31.2404 31.1935M24.086 31.1249C24.2627 30.9885 24.4944 30.8587 24.7726 30.8034C25.2708 30.7042 24.8826 29.9124 24.8826 29.9124C24.8826 29.9124 25.6175 29.4677 25.6175 28.9751C25.6175 28.9751 25.9262 28.952 25.6936 28.0775C25.4619 27.2039 25.9727 27.4295 25.9431 27.0014C25.9126 26.5741 25.6936 26.3824 25.6936 26.3824C25.6936 26.3824 26.0648 25.8674 25.9769 25.6054C25.9769 25.6054 25.6961 24.8252 25.4991 24.7963C25.4991 24.7963 25.8534 24.6318 25.7697 24.3524C25.686 24.0731 25.1177 23.1647 25.2428 22.8151C25.2428 22.8151 25.0703 22.6209 25.0585 22.3465C25.0475 22.0721 25.3511 21.7894 25.2623 21.4563C25.2209 21.3018 25.0272 21.2332 25.0272 21.2332C25.0272 21.2332 24.9359 20.5902 24.634 20.1901C24.6847 20.2298 24.7439 20.2662 24.8132 20.2967C25.357 20.5364 25.5684 20.4604 26.3803 21.3935C27.1921 22.3275 27.3477 23.2722 27.264 23.6111C27.1803 23.9491 27.0771 24.5053 27.467 24.9178C27.8568 25.3302 28.3583 26.0765 28.442 26.5204C28.5258 26.9634 28.4184 27.8271 28.645 28.1998C28.8716 28.5734 29.1465 29.0636 29.1583 29.3437C29.1583 29.3437 30.9968 28.48 33.1821 28.2701C35.3665 28.0602 34.7576 27.7221 34.865 27.3254C34.9724 26.9287 35.5931 26.0418 36.0354 25.9831C36.4768 25.9253 36.465 26.0303 36.465 26.1352C36.465 26.2402 35.9161 27.0568 35.9872 27.0684C36.0591 27.0799 36.3813 26.9948 36.7348 26.7444C37.1086 26.4799 37.7183 25.6749 37.8739 25.5864C38.0642 25.4781 38.1428 25.5848 38.191 25.6782C38.2384 25.7716 37.6938 26.4443 37.6337 26.503C37.5745 26.5609 37.0849 26.9733 37.1094 27.0684C37.1458 27.208 37.5077 26.9956 37.7614 26.8138C38.0878 26.5807 38.657 25.6211 38.8363 25.703C39.0156 25.7848 39.0629 26.0055 38.9555 26.1451C38.8481 26.2856 37.8722 27.2857 37.9365 27.3395C38.2155 27.5725 39.0595 26.3088 39.4012 26.5146C39.9187 26.8254 38.2435 27.5874 38.0642 27.8445C38.0033 27.9312 37.9788 28.0048 38.1158 27.9337L38.1149 27.9345C38.8075 27.5725 39.3767 27.6386 39.0984 27.8568C38.8777 28.0296 38.0532 28.6205 37.4916 28.69C36.931 28.7602 35.9635 28.7949 35.2946 29.209C34.6282 29.6231 34.103 30.2868 31.2404 31.1935M24.086 31.1249C23.8204 31.3282 23.6758 31.5447 23.6758 31.5447C23.7147 31.2927 23.5016 31.0075 23.3155 30.8125C23.1794 30.6703 23.0585 30.5752 23.0585 30.5752C23.0788 30.6281 23.094 30.6786 23.105 30.7282C23.2115 31.2232 22.8403 31.5274 22.82 31.5439C23.0669 31.0588 22.6821 30.8496 22.2322 30.3843C22.2322 30.3843 22.2317 30.3838 22.2305 30.3827C22.1231 30.2719 22.0436 30.2537 21.9853 30.2918C21.7976 30.4083 21.8229 31.0902 21.8229 31.0902C21.8229 31.0902 21.8221 30.9108 21.4677 30.3438C21.3772 30.2 21.2792 30.0926 21.1819 30.0116M24.086 31.1249C24.5553 31.3125 24.9372 31.4186 25.0987 31.4302C25.6619 31.4699 25.7753 31.6029 25.9292 31.6079C25.9537 31.6087 26.0848 31.5542 26.1727 31.498M21.1819 30.0116C20.8978 29.7735 20.6271 29.7677 20.6271 29.7677C20.6271 29.7677 20.946 29.7124 20.639 28.8842C20.332 28.056 19.7527 27.9825 19.8914 27.289C20.0309 26.5964 20.4343 26.3972 20.4935 26.1542C20.5975 25.7253 20.3734 25.5897 20.3092 25.3872C20.2457 25.1856 20.3895 25.2476 20.4588 25.0376C20.5231 24.8434 20.3066 24.4624 20.0521 24.145M21.1819 30.0116C20.6745 29.8471 20.2073 29.6912 19.7752 29.6268C18.2749 29.4011 17.5502 29.8507 17.1333 30.1541C17.4665 29.8507 19.5663 28.1729 19.9815 26.5711C20.3223 25.2578 20.1468 24.4673 20.0521 24.145M20.0521 24.145C20.0309 24.1185 20.0106 24.0937 19.9895 24.0689C19.7087 23.7375 19.751 23.392 19.751 23.392C18.3717 22.0837 18.7785 21.3539 18.7785 21.3539C18.7785 21.3539 19.0516 21.7936 18.7886 21.2762C18.6136 20.9315 18.8783 20.4968 18.9857 20.3414C18.8614 20.4736 18.5975 20.7026 18.4673 20.7224C17.6394 20.8472 17.1303 22.9011 16.4292 24.4566C15.729 26.0121 15.888 28.4081 15.6013 28.9478C15.3154 29.4876 13.5742 30.8893 14.4875 31.3951C15.5446 31.9803 18.2761 32.5465 18.2761 32.5465C19.8922 33.006 23.7824 32.5118 24.7667 32.5076C25.3579 32.506 25.6843 32.6531 25.9338 32.8291C26.0995 32.9465 26.2314 33.0771 26.3845 33.1845C26.7668 33.4532 28.1875 33.7565 28.76 33.7565C29.3325 33.7565 30.4319 33.5813 30.8497 33.3482C31.2675 33.1143 30.9926 33.0333 30.9452 32.9862C30.897 32.9399 30.8142 32.9159 30.3964 33.073C29.9778 33.2292 29.5964 33.173 29.5964 33.173C30.0142 33.1143 30.1452 33.073 30.6586 32.8234C31.615 32.358 31.4467 31.7844 31.4112 31.7026C31.3749 31.6208 31.3157 31.4464 30.8852 32.053C30.4556 32.6597 29.6438 32.6126 29.6438 32.6126C30.6586 32.2283 31.1837 31.353 31.2438 31.277C31.2582 31.2579 31.2556 31.2282 31.2404 31.1935M20.0521 24.145C20.0208 24.04 20.0204 23.9627 20.0204 23.9627M24.4332 12.594C24.3824 12.5585 24.3258 12.5196 24.2623 12.4799C23.4108 11.9427 23.1723 11.8187 22.8222 12.0361M24.4332 12.594C25.0598 13.042 24.7402 13.1957 24.7402 13.1957C24.5414 13.2965 24.4535 13.7007 24.127 13.9106C23.848 14.0908 23.7558 13.8486 23.6552 13.5718M24.4332 12.594C24.4332 12.594 24.3723 12.6328 24.281 12.7072M22.8222 12.0361C22.8222 12.0361 22.8222 12.0361 22.8205 12.0369M22.8222 12.0361C22.8222 12.0361 22.8213 12.0361 22.8205 12.0369M22.8205 12.0369C22.7773 12.0435 22.0966 12.165 22.0813 12.2932C22.0661 12.4254 22.2327 12.7287 22.472 12.7676C22.4814 12.7692 22.4915 12.7709 22.5025 12.7734M22.8205 12.0369C22.7934 12.0493 22.4357 12.2237 22.5025 12.7734M22.5025 12.7734C22.7689 12.8296 23.4793 13.1197 23.6019 13.4313C23.6154 13.4651 23.6281 13.4999 23.6408 13.5346M23.6408 13.5346C23.6408 13.5346 23.6433 13.5412 23.6475 13.5528C23.6501 13.5585 23.6526 13.5643 23.6552 13.5718M23.6408 13.5346C23.8091 13.1362 24.1025 12.8527 24.281 12.7072M23.6552 13.5718C23.678 13.6247 23.7186 13.7139 23.7389 13.7048C23.8809 13.6437 24.3241 13.0122 24.3638 12.9188C24.4036 12.8254 24.2869 12.7163 24.281 12.7072M22.5642 13.5999C22.5938 13.6139 22.6251 13.6288 22.6564 13.6437H22.6581C22.8628 13.7371 23.1114 13.8313 23.4108 13.923M22.5642 13.5999C22.5228 13.58 22.4839 13.5602 22.4467 13.5404M22.5642 13.5999C22.4044 13.4759 22.3376 13.1494 22.3376 13.1494M18.1904 9.10447C18.1904 9.10447 17.3193 8.67303 17.1282 8.32342C16.9371 7.97297 16.5548 7.35474 16.6267 6.71254C16.6267 6.71254 16.4956 7.44814 16.28 7.86801C16.0652 8.28788 15.8986 9.3268 15.9942 9.63013C16.0897 9.93346 16.0804 10.7087 16.4119 11.1699C16.6174 11.4567 18.4111 12.3593 18.4111 12.3593C18.4111 12.3593 18.264 12.408 18.1566 12.5295C18.1566 12.5295 17.25 12.5634 17.0132 13.5693C17.0132 13.5693 16.7612 13.7478 16.7916 13.923C16.7916 13.923 16.3595 14.1685 16.3375 14.7214C16.3375 14.7214 15.6694 14.8752 15.4986 15.7984C15.3286 16.7208 15.1603 17.8324 16.8711 17.9729C16.8711 17.9729 16.702 18.8317 18.6141 19.1491C18.6141 19.1491 18.5633 19.8623 18.9811 20.3392M18.1904 9.10447C18.1904 9.10447 17.9993 8.55649 18.1312 7.37789C18.2623 6.19928 19.4141 5.36533 19.8022 5.05621C20.1904 4.74627 20.7655 4.87273 20.7655 4.87273M18.1904 9.10447C18.1904 9.10447 19.2619 9.83759 19.3896 10.9575L20.7655 12.2022M20.7655 4.87273C20.7655 4.87273 20.3198 3.60486 21.3938 2.58577C22.4687 1.56668 23.2568 2.0568 23.2568 2.0568C23.5993 1.73777 23.8776 2.19731 23.8776 2.19731C24.3706 1.39559 26.4408 0.540154 27.4117 1.28732C28.3825 2.03366 27.4117 2.9048 27.4117 2.9048C27.4117 2.9048 26.9677 2.72049 26.3706 3.2569C25.7736 3.79413 25.0573 5.09258 24.9862 6.53154C24.9144 7.97132 25.185 8.84247 25.5512 9.40201C25.9173 9.96239 26.6497 10.8806 25.9808 11.7047C25.3118 12.5295 25.2839 12.1849 25.1173 12.6932C24.9499 13.2007 25.1114 13.1246 25.0218 13.3635C24.9321 13.6032 24.5922 14.0115 24.5922 14.0115C24.5922 14.0115 25.1427 13.9701 25.3896 14.4603C25.6366 14.9504 25.4852 15.7207 25.4852 15.7207C25.4852 15.7207 25.8835 16.3662 25.8116 16.8406C25.7397 17.3159 24.8247 17.3547 24.6657 17.3464C24.6657 17.3464 24.8526 17.8952 24.7055 18.0663C24.7055 18.0663 24.3173 17.9762 23.9376 17.9233M20.7655 4.87273C20.7655 4.87273 21.4268 6.88198 22.812 8.81106M23.9376 17.9233C23.596 17.8771 23.2602 17.8605 23.2205 17.968C23.1376 18.1953 24.0864 19.0474 24.3308 19.0821C24.5761 19.1177 24.6953 18.9309 24.6953 18.9309C24.6953 18.9309 24.8983 19.24 24.6835 19.397C24.4687 19.5549 24.3791 19.4383 24.3791 19.4383C24.3791 19.4383 24.1051 19.545 24.7055 20.2475M23.9376 17.9233C24.4137 18.3135 24.6953 18.93 24.6953 18.93M18.3274 32.489L18.291 32.5617C18.45 32.5956 18.6081 32.641 18.7697 32.6592L19.0107 32.6939L19.2534 32.7154C20.8678 32.8353 22.4856 32.6691 24.0949 32.5592C24.7199 32.5138 25.4082 32.4485 25.9359 32.8369L25.9182 32.8022C25.9089 33.0328 25.9156 33.2791 25.9867 33.5006C26.0975 33.9486 26.1076 34.4106 26.1601 34.8701C26.1634 34.8991 26.1694 34.9297 26.1761 34.9602L26.1998 35.0445C26.3664 35.5702 26.5144 36.1099 26.7749 36.6009C27.0328 36.9877 27.0235 37.4927 27.2645 37.8944L27.3152 37.9704L27.421 38.1101C27.9842 38.8473 28.5356 39.6036 28.9457 40.4326C29.1521 40.845 29.2967 41.2847 29.3406 41.7409C29.3855 42.1914 29.355 42.6625 29.2172 43.0939L29.2696 43.0683C28.8366 42.9088 28.4552 42.622 28.1465 42.2881L27.9969 42.1286C28.2413 42.7592 28.4907 43.3882 28.7614 44.0089C28.8916 44.2899 28.9965 44.5676 29.18 44.8263C29.2409 44.8866 29.3051 44.9181 29.3686 44.9701L29.5504 45.1081C30.0096 45.485 30.5221 45.8628 30.8003 46.3926C30.9779 46.805 31.0599 47.2521 31.1487 47.691C31.1944 47.9216 31.2536 48.3018 31.3102 48.5266C31.3178 48.5547 31.3246 48.5803 31.3491 48.6018L31.3449 48.5365C31.0717 48.7415 30.7149 48.5704 30.5077 48.3522L30.391 48.2448L30.4366 48.3919C30.9576 49.9763 32.1102 52.3517 34.0587 52.4244L34.0215 52.4005C34.1339 52.6195 34.4232 52.5848 34.5982 52.474C34.6523 52.4393 34.7141 52.3988 34.7623 52.3591L34.8646 52.2748C35.2012 51.9649 35.454 51.5822 35.7196 51.2161C35.5547 51.3086 35.3889 51.4177 35.202 51.464C35.0202 51.5186 34.8299 51.5128 34.7158 51.3533C34.4426 51.0177 34.2693 50.5747 34.3073 50.1441C34.3403 49.6192 34.7919 49.2771 35.2206 49.0308C35.8617 48.634 36.7166 48.4605 37.3873 48.887L37.3864 48.8886C37.9065 49.2391 38.1628 49.8689 38.3057 50.4524C38.7277 52.0889 37.4211 53.4154 36.0925 54.1965C35.2206 54.7436 34.2337 55.1172 33.2037 55.2461C32.3411 55.3486 31.4371 55.3412 30.6032 55.0858C29.8168 54.7883 28.9271 53.9444 28.6937 53.1377L28.6709 53.0493L28.6176 53.1237C28.4079 53.4196 28.2091 53.7221 28.0214 54.0328C27.8438 54.3494 27.6324 54.6626 27.5783 55.0279L27.6544 55.004C27.3973 54.6932 27.1055 54.413 26.7757 54.1766C26.4721 53.9369 26.2886 53.5617 26.1279 53.2162C25.8429 52.5253 25.6027 51.6566 26.0298 50.9772L25.9647 50.9251C25.3634 51.5607 24.5144 52.5104 24.4256 53.3939L24.4924 53.3617C23.9993 52.9832 23.711 52.3724 23.6771 51.7641C23.6687 51.5657 23.6771 51.3458 23.7127 51.1491C23.771 50.7383 23.8953 50.3416 24.0552 49.9565C24.2065 49.5738 24.445 49.1407 24.248 48.7266L24.1854 48.5936C24.1541 48.9432 24.0602 49.2969 23.87 49.5978C23.5258 50.1259 22.9515 50.4284 22.4162 50.745C22.1448 50.9103 21.8606 51.102 21.7236 51.3996L21.7989 51.3954C21.3837 50.6061 21.3329 49.6275 21.7236 48.8192C21.8505 48.5497 22.0171 48.2985 22.2074 48.0646C22.4145 47.7918 22.686 47.5513 22.7985 47.2182C22.922 46.3768 23.2205 45.4478 22.8019 44.6403L22.7173 44.485L22.7224 44.6618C22.7207 45.0924 22.7452 45.5586 22.5668 45.9586C22.3976 46.2611 22.2065 46.5545 22.0137 46.843L22.0729 46.8314C21.5376 46.4388 21.2061 45.8247 21.075 45.1908L21.031 45.3354C20.8872 45.8099 20.6784 46.2587 20.4568 46.7041L20.5084 46.6818C20.3756 46.6314 20.2462 46.5479 20.1337 46.4537C19.7896 46.1644 19.5646 45.7619 19.4301 45.3412C19.2272 44.7842 19.2965 44.1502 19.6196 43.6502L19.5545 43.5981C18.8779 44.3271 18.6454 45.3925 18.938 46.3306C19.5815 48.0373 20.0813 49.1159 19.4665 50.9565H19.5468C19.4022 50.5863 19.1976 50.2028 18.8382 49.9937C18.6276 49.8879 18.3807 49.8515 18.1667 49.7317C17.7599 49.5333 17.4868 49.02 17.683 48.5952C17.7447 48.4588 17.8453 48.3349 17.9612 48.239L17.9155 48.1704C17.3904 48.4373 17.0927 49.049 17.3286 49.6002C17.4589 49.9052 17.6847 50.1606 17.8462 50.4433C18.3671 51.2599 17.9942 52.1046 17.4487 52.803L17.5206 52.8104C17.2136 52.2137 16.8102 51.6417 16.2369 51.2624C16.1777 51.2243 16.1176 51.164 16.0669 51.1161C15.8791 50.9127 15.7903 50.6416 15.7988 50.3681C15.798 50.0565 15.918 49.7837 16.0584 49.5068C16.1971 49.1275 16.0787 48.7184 15.9485 48.353C15.9417 48.5787 15.935 48.8299 15.9028 49.0523C15.8952 49.101 15.8842 49.1581 15.8681 49.187L15.9409 49.1911L15.6229 48.5721L15.5096 48.3522C15.54 48.558 15.5713 48.796 15.5764 49.0027C15.5958 49.2829 15.491 49.5457 15.4961 49.8201C15.4927 50.2383 15.5358 50.6623 15.7202 51.0475C15.8521 51.2987 16.066 51.4872 16.2343 51.7087C16.4026 51.9211 16.5244 52.1707 16.5388 52.4385C16.5608 52.9815 16.3121 53.5047 16.1836 54.0303C16.11 54.2998 16.0821 54.6089 16.2309 54.8626L16.2732 54.8015C15.2034 54.6271 14.4982 53.8857 14.3975 52.8302L14.3129 52.8352C14.3121 53.6212 14.159 54.4444 13.6914 55.0974C13.4529 55.4172 13.1561 55.6974 12.8423 55.9454C12.6816 56.0743 12.4973 56.1619 12.3442 56.3049C12.1903 56.4553 12.104 56.6479 12.0254 56.833L12.1066 56.8421C12.0127 56.2156 11.9459 55.5759 11.9856 54.942C12.0017 54.7329 12.0271 54.5196 12.104 54.3287L12.214 54.0543C11.77 54.6436 11.2144 55.2478 10.4507 55.3999C9.97462 55.5139 9.70823 55.5867 9.4503 56.0338H9.52218C9.45706 55.8974 9.45199 55.7189 9.47144 55.5643C9.4892 55.4007 9.53233 55.2387 9.58814 55.0817C9.7835 54.4081 10.4144 54.0336 10.7856 53.46C10.9894 53.1567 11.0639 52.779 11.03 52.4211C10.8964 52.4434 10.7772 52.5038 10.674 52.5724C10.0262 53.0055 9.76743 53.7807 9.36742 54.3973C8.87608 55.0949 8.03548 55.4718 7.30481 55.89C6.73652 56.1834 6.13693 56.4719 5.48745 56.5008C5.05193 56.5264 4.65361 56.3363 4.33226 56.0578C4.16904 55.9222 4.00329 55.7735 3.80794 55.6677C3.42484 55.4412 2.8963 55.3759 2.54111 55.69L2.60876 55.7354C2.89714 55.0362 3.62696 54.5775 4.39822 54.6271L4.53522 54.6221C4.16481 54.3874 3.76734 54.151 3.31829 54.1097C2.61976 54.0403 1.50515 53.5295 1.095 52.9716C0.916563 52.7228 0.828612 52.422 0.733897 52.136C0.450594 51.2632 0.578292 50.2664 1.16519 49.5383C1.5356 49.0556 2.00749 48.6134 2.58678 48.3877C2.98847 48.2315 3.561 48.1745 3.83415 48.5704C4.08532 48.9085 4.1775 49.4854 3.82062 49.7829C3.3851 50.1003 2.97833 50.483 2.90221 51.0425C2.85486 51.4574 2.99524 51.8698 3.19313 52.2294L3.22188 52.2823C3.36311 52.136 3.39778 51.9368 3.43161 51.7483C3.45698 51.4252 3.55085 51.1004 3.77665 50.8582C3.8832 50.7433 4.03289 50.6491 4.18173 50.6755C4.3424 50.7069 4.36185 50.9053 4.39737 51.04C4.50139 52.3674 5.16187 53.2964 6.57922 53.4212C7.26168 53.4807 7.96106 53.3939 8.59194 53.1278C9.39448 52.8112 10.0186 52.2112 10.5911 51.6004C11.0715 51.1359 11.611 50.6697 11.8343 50.0251C11.8867 49.8647 11.8926 49.6887 11.9011 49.5234L11.9493 48.5299M35.5708 51.3491C35.5708 51.3491 35.7458 51.3624 35.953 51.0359C36.1602 50.7094 35.5708 50.5069 35.5708 50.5069C35.5708 50.5069 35.8092 49.9003 36.6372 50.1805C37.4651 50.4606 37.115 51.6897 36.3505 52.4674C36.3505 52.4674 36.271 51.8136 35.9369 51.9847C35.6029 52.1558 35.3323 52.4046 35.3957 52.6385C35.4591 52.8724 35.0727 54.27 32.8485 54.7081C30.6244 55.1461 29.2705 54.2114 29.0201 53.8783M27.6222 55.0279C27.6222 55.0279 27.3152 54.6792 27.3313 54.1965C27.3474 53.7138 27.7161 53.1402 27.7212 52.174C27.7279 50.9673 27.5064 47.81 26.8138 46.643M25.9639 42.5286C25.9639 42.5286 26.4729 46.4644 26.6328 46.8694M34.4485 53.2832C34.4485 53.2832 32.5864 54.275 31.5115 53.5518C30.4366 52.8286 28.0408 50.4482 27.5715 48.6274C26.8315 45.7586 26.6624 44.8875 26.6624 44.8875M33.6663 53.0633C33.6663 53.0633 32.4883 53.3741 30.9923 51.4144C29.4962 49.4539 29.8193 46.7157 29.021 45.814C28.2227 44.9114 27.2992 44.3825 26.1211 41.4889C24.9431 38.5952 25.1021 36.448 25.1021 36.448M29.2552 43.1072C29.2552 43.1072 28.6125 42.7989 28.4214 42.2269C28.2303 41.655 27.9681 40.8731 27.048 39.7879C26.1288 38.7027 25.1139 35.3892 25.7228 35.6223M25.5385 39.7631C25.5385 39.7631 24.8729 38.8308 24.7757 36.8406C24.7156 35.6115 24.5254 35.1016 24.5254 35.1016M21.7608 51.4153C21.7608 51.4153 21.7591 50.64 22.2606 49.7184C22.7621 48.7969 23.037 48.7035 23.037 48.7035C23.037 48.7035 23.3118 47.8282 23.6695 47.2447C24.0273 46.6612 24.7444 45.9024 24.9347 44.199C25.1249 42.4955 24.9025 41.0293 24.0273 38.6952C23.152 36.3612 23.5976 34.728 23.5976 34.728M22.0475 46.8645C22.0475 46.8645 21.7076 46.3306 22.0475 45.1751C22.3875 44.0196 23.5934 40.6243 23.2357 38.501M20.4923 46.7207C20.4923 46.7207 18.9371 41.8699 20.0991 38.501M19.5046 50.9681C19.5046 50.9681 19.4471 50.4425 18.8576 49.649C18.269 48.8555 17.5874 47.3935 17.584 44.8883C17.5815 43.1923 18.1574 42.0881 18.1574 42.0881M16.757 43.9543C16.757 43.9543 16.0246 46.0082 16.598 48.9952M16.2656 54.8395C16.2656 54.8395 15.1815 53.7824 14.9667 52.8493C14.7519 51.9161 14.6681 50.492 14.9066 49.6052M12.0626 56.8463C12.0626 56.8463 12.4465 55.766 12.4229 55.2527C12.3992 54.7395 13.3184 53.0592 13.485 52.5806C13.6516 52.1021 15.0732 48.9638 15.2999 47.2017C15.5265 45.4396 15.5028 43.4791 16.7561 41.4608C18.0094 39.4424 20.4923 37.8514 19.2272 33.0477M2.54534 49.6754C2.54534 49.6754 1.00113 51.5111 1.94068 52.6782C2.88023 53.8452 5.38512 54.9593 7.25746 54.3742C9.19913 53.7675 12.0626 51.5896 13.1789 49.6754C14.3848 47.6083 14.1497 45.6768 14.1658 44.4015C14.1836 42.9543 14.8144 40.4185 16.5675 39.6094M6.36188 55.5676C7.55598 54.9139 8.08707 55.6784 9.03169 54.8395M16.954 10.1252C17.4792 10.5219 18.0601 10.25 18.4821 10.8798C18.8686 11.4567 19.1375 11.5939 19.1375 11.5939M18.8661 11.8543C18.8661 11.8543 18.132 11.0674 17.606 10.8492M18.6065 11.5939C18.6065 11.5939 17.8132 11.5741 17.7337 11.3518M23.8776 2.19648C23.8776 2.19648 22.812 3.7933 23.0987 5.35706M24.6979 2.90646C24.6979 2.90646 23.1283 5.66039 23.8767 8.25068C23.8767 8.25068 23.623 5.66039 25.6763 3.13953M21.7887 4.719C21.7887 4.719 21.9215 7.47294 22.4306 8.25068M22.3342 3.90984C22.3342 3.90984 22.2386 6.36789 22.812 7.92338M20.6944 6.64808C20.6944 6.64808 20.7418 8.82593 22.2065 10.4757M20.2809 5.76123C19.9088 5.35706 19.469 7.86718 20.6944 10.8592M19.0707 6.64808C19.0707 6.64808 18.1946 7.35061 18.8661 8.98215C19.0707 9.47971 19.2864 9.86899 19.2424 10.398M22.1938 11.6625C22.1938 11.6625 23.0953 11.1096 23.8623 11.3079M23.0936 11.3113C23.0936 11.3113 23.4869 10.7137 24.2328 11.165C24.9786 11.6162 25.0522 12.2849 25.0522 12.2849M24.4399 11.3088C24.4399 11.3088 24.8991 11.5848 25.1858 11.6633M25.7905 11.4137C25.7905 11.4137 25.7414 11.9146 25.4573 12.1931M22.4467 13.5404C21.7194 13.1585 21.6839 12.8254 21.6839 12.8254M22.4467 13.5404C22.0797 13.3362 22.0095 12.9535 22.0095 12.9535M23.7397 15.9645C23.7397 15.9645 23.1909 15.9786 23.1613 16.3596C23.1317 16.7406 23.1714 16.9679 23.4979 17.0034C23.8243 17.039 24.1769 16.9208 24.6666 17.3473M23.4471 16.9952C23.4471 16.9952 23.6991 16.7919 23.9368 16.8043C24.1744 16.8167 24.2226 16.8571 24.3004 16.8514C24.3782 16.8456 24.834 16.5489 25.2137 16.8456M24.1609 16.1323C24.1609 16.1323 24.0222 15.8042 24.0374 15.6182C24.0526 15.4322 23.8607 15.2041 23.1528 15.4422C22.445 15.6802 22.5245 16.0728 22.341 16.0695C22.1575 16.0662 21.8048 16.0215 21.3464 16.1695C21.1173 16.2439 21.124 16.0422 20.9524 16.0149C20.7807 15.9877 20.0881 15.5909 20.4145 14.9958M21.9723 13.7503C21.6044 13.7718 21.3803 13.6941 21.2467 13.5784M21.2467 13.5784C21.2467 13.5784 21.2467 13.5767 21.2441 13.5751L21.2467 13.5784ZM21.2281 13.5602C21.2306 13.5618 21.2348 13.566 21.2348 13.566C21.2331 13.5635 21.2306 13.5618 21.2281 13.5602ZM21.2281 13.5602C20.9591 13.304 21.0885 12.8825 21.0885 12.8825M21.2281 13.5602C21.1706 13.5131 20.9659 13.4131 20.3925 13.6437M23.2078 14.6793C23.2078 14.6793 21.9486 14.5834 21.9486 13.9222M21.0572 13.2089C21.0572 13.2089 20.6767 12.8585 19.727 13.0453M27.9258 31.9211V31.922M37.4321 48.8167C38.1196 49.2771 38.4182 50.1209 38.479 50.902C38.5805 52.4872 37.2537 53.6981 35.953 54.4221C35.1183 54.9098 34.1855 55.2371 33.2206 55.3552C32.6582 55.4238 32.0883 55.4354 31.5242 55.3759C31.202 55.3387 30.8815 55.2833 30.5703 55.1817C30.2574 55.0717 29.9851 54.8883 29.7339 54.6882C29.2451 54.2766 28.7859 53.7799 28.6134 53.1551L28.6895 53.1691C28.3808 53.6105 28.0814 54.0626 27.837 54.5411C27.7406 54.7329 27.6637 54.9263 27.6544 55.1313C27.3871 54.799 27.0785 54.4924 26.7283 54.2428C26.1727 53.7824 25.815 52.7939 25.733 52.0971C25.6907 51.6996 25.7288 51.2723 25.9613 50.9293L26.0264 50.9813C25.4412 51.5996 24.6006 52.5377 24.511 53.3956L24.5067 53.4741C23.9511 53.0799 23.6306 52.4286 23.5934 51.7674C23.5664 51.1359 23.738 50.5053 23.9774 49.9251C24.1211 49.5564 24.3554 49.149 24.1719 48.7597L24.2522 48.7456C24.1845 49.3986 23.8108 49.9432 23.2695 50.3135C22.8881 50.5962 22.4424 50.7788 22.0797 51.0797C21.9384 51.1962 21.8319 51.3417 21.7659 51.5078C21.5976 51.2152 21.4885 50.8979 21.4259 50.5697C21.2331 49.6631 21.5426 48.7142 22.1397 48.0117C22.3215 47.7753 22.5465 47.5579 22.6784 47.2934C22.741 47.1587 22.7427 47.0075 22.7706 46.8645C22.8915 46.1553 23.0818 45.3487 22.7266 44.6792L22.8061 44.6577C22.812 44.8577 22.8086 45.0569 22.7959 45.2561C22.7756 45.5032 22.757 45.7669 22.6403 45.9966C22.4619 46.3149 22.2615 46.6207 22.0585 46.9232C21.5308 46.5471 21.1748 45.9719 21.0285 45.3553L21.1105 45.3578C20.9659 45.8355 20.7528 46.2917 20.5312 46.738L20.5143 46.7727L20.4805 46.7595C19.891 46.5165 19.5342 45.938 19.3481 45.3652C19.1375 44.785 19.2094 44.1254 19.5477 43.6031L19.6128 43.6551C18.9599 44.3593 18.7325 45.3974 19.0166 46.3058C19.113 46.6058 19.2441 46.9025 19.3549 47.2042C19.8724 48.5233 20.0018 49.6176 19.5443 50.9797L19.5071 51.0987C19.36 50.6871 19.1282 50.1912 18.691 50.0168C18.3477 49.9052 17.9663 49.7936 17.7439 49.4895C17.414 49.0531 17.4741 48.5175 17.9045 48.172L17.9502 48.2406C17.5739 48.4382 17.2897 48.8332 17.3312 49.2622C17.3625 49.7002 17.7083 50.0259 17.9155 50.3995C18.4551 51.25 18.0771 52.1261 17.5121 52.8493L17.4716 52.9038L17.4403 52.8418C17.1307 52.231 16.7062 51.6574 16.1176 51.2781C16.017 51.1929 15.9223 51.0888 15.858 50.9739C15.6407 50.5995 15.6846 50.1366 15.8419 49.7515C15.9324 49.5614 16.0322 49.3994 16.0297 49.1878C16.0356 48.9903 16.0009 48.787 15.9383 48.5993L16.0204 48.5869C16.017 48.6927 16.0102 48.7977 16.0009 48.9035C15.9865 49.0399 15.9789 49.1729 15.8977 49.2977L15.8605 49.2258L15.5426 48.6068L15.6221 48.5828C15.655 48.8622 15.6838 49.1399 15.6204 49.4201C15.5891 49.5473 15.5789 49.6845 15.5755 49.8193C15.5713 50.2201 15.6161 50.6441 15.7912 51.0078C15.9155 51.2433 16.1278 51.4326 16.2978 51.6558C16.472 51.8748 16.6039 52.1442 16.6191 52.4294C16.6428 52.9848 16.3933 53.5171 16.2622 54.0469C16.181 54.3312 16.1701 54.6411 16.3434 54.894C15.1967 54.7395 14.4178 53.9675 14.3096 52.8369L14.3941 52.8319C14.3941 53.7336 14.1912 54.6899 13.5637 55.3817C13.3548 55.6057 13.1366 55.8206 12.8914 56.0082C12.7358 56.1346 12.5455 56.2272 12.4009 56.3619C12.2284 56.5297 12.1387 56.7777 12.0431 57C11.9357 56.3173 11.8563 55.6255 11.8985 54.9345C11.9154 54.7205 11.94 54.5039 12.0229 54.2965L12.0964 54.3362C11.7184 54.8015 11.2609 55.2486 10.6655 55.4263C10.3653 55.5222 9.989 55.5486 9.75474 55.7693C9.66341 55.8569 9.58984 55.966 9.51964 56.076L9.48074 56.1363C9.22281 55.7032 9.48413 54.985 9.72599 54.5849C10.2139 53.8634 11.0326 53.4601 10.9463 52.4724L10.9945 52.5104C10.8017 52.5575 10.6173 52.6988 10.4736 52.8377C10.0008 53.2873 9.78772 53.9014 9.43423 54.4419C9.18983 54.8073 8.83211 55.0784 8.46847 55.3106C7.63463 55.8115 6.78641 56.3479 5.81642 56.5479C5.24559 56.662 4.70435 56.5057 4.2739 56.1189C3.83923 55.7164 3.13478 55.2966 2.59185 55.7503L2.45654 55.866L2.5242 55.7049C2.67726 55.3462 2.9352 55.0362 3.26924 54.8263C3.60159 54.6097 4.00244 54.5304 4.39737 54.542L4.372 54.6172C4.04642 54.4205 3.69462 54.2246 3.30899 54.1899L3.18721 54.1783L3.06797 54.1568C2.60115 54.0502 2.15802 53.865 1.74702 53.6262C1.47556 53.465 1.2134 53.2749 1.02143 53.017C0.837069 52.7616 0.745736 52.4517 0.647637 52.1566C0.35757 51.2624 0.489496 50.2317 1.09162 49.487C1.47217 48.9911 1.95252 48.5423 2.55041 48.3084C3.24387 48.0381 3.91111 48.1819 4.09969 48.9514C4.16904 49.2564 4.1386 49.6374 3.86882 49.8441C3.43499 50.159 3.01469 50.5557 2.97748 51.1061C2.9445 51.4839 3.0815 51.8525 3.26163 52.1864L3.19482 52.1773C3.38594 51.9021 3.31829 51.5401 3.44429 51.2392C3.53563 51.002 3.68447 50.7631 3.92041 50.6383C4.098 50.5425 4.32718 50.5755 4.40583 50.7747C4.55382 51.1665 4.49885 51.6045 4.67476 51.9864C5.15679 53.2253 6.36442 53.4716 7.58812 53.3146C8.82196 53.1551 9.72684 52.4186 10.5277 51.5409C10.8888 51.1971 11.2634 50.8532 11.5357 50.4383C11.7235 50.1598 11.8174 49.8556 11.8131 49.5192L11.8613 48.5258C11.9594 46.8711 12.0727 45.2057 12.4372 43.5832C12.904 41.2235 14.9032 39.6399 16.4677 37.9415C17.3802 36.9645 17.9147 35.6991 18.264 34.4354C18.3781 33.9535 18.6361 32.903 18.2749 32.5567L18.1244 32.4435L18.3122 32.4832C18.5337 32.541 18.7883 32.5832 19.0183 32.6129C20.0602 32.7187 21.1105 32.6733 22.1549 32.6146C22.7993 32.5766 23.442 32.5245 24.0864 32.4782C24.7216 32.4295 25.4421 32.3691 25.9825 32.7716L26.0011 32.7849C25.9926 33.0212 25.9935 33.256 26.0662 33.4816C26.1787 33.9337 26.188 34.4032 26.2412 34.8602C26.2429 34.9073 26.2666 34.9776 26.2784 35.0231C26.4425 35.5404 26.5905 36.076 26.8442 36.5579L26.8924 36.6306C26.9271 36.6835 26.9499 36.7389 26.9719 36.7943C27.1174 37.172 27.1512 37.5844 27.3812 37.9216C27.9825 38.7085 28.5804 39.5077 29.0201 40.3962C29.4557 41.2392 29.5757 42.2476 29.2823 43.1601C28.8146 42.9989 28.4112 42.6989 28.0814 42.3426L28.1525 42.3005C28.3707 42.8625 28.5956 43.4237 28.8366 43.9758C28.9601 44.2403 29.0734 44.537 29.2417 44.7718C29.2552 44.7891 29.2958 44.8139 29.3246 44.8362L29.4176 44.904L29.6011 45.0429C30.0722 45.4288 30.5906 45.8115 30.8764 46.3587C31.0582 46.7794 31.1402 47.2315 31.2307 47.6761L31.3128 48.1208C31.3398 48.2373 31.361 48.4266 31.4016 48.5373C31.4033 48.5415 31.399 48.5316 31.3948 48.5332L31.399 48.5985C31.1749 48.7721 30.862 48.7258 30.6438 48.5737C30.588 48.534 30.4958 48.4605 30.4459 48.4092L30.517 48.3687C30.9449 49.6507 31.6113 51.0648 32.7437 51.8864C33.1259 52.1616 33.5876 52.3277 34.0595 52.341H34.0849L34.0976 52.3649C34.2735 52.6368 34.6371 52.3649 34.8071 52.2128C34.9576 52.0666 35.1073 51.907 35.2333 51.7384C35.3416 51.6062 35.4354 51.4632 35.5352 51.3252L35.5919 51.3839C34.8883 51.7674 34.6473 51.5558 34.3555 50.8979C34.0358 50.1209 34.2921 49.4854 35.0126 49.0638C35.7069 48.5861 36.671 48.3315 37.4321 48.8151V48.8167ZM21.7194 42.9964C21.6391 43.0857 21.5435 43.127 21.4615 43.2055C21.1815 43.4551 21.1266 43.851 21.064 44.199C20.883 43.6584 20.5295 43.1369 20.5625 42.5427C20.5794 42.3641 20.6589 42.203 20.7029 42.0302C20.8982 41.3574 21.0226 40.6656 21.2839 40.0094C21.3617 39.8532 21.4378 39.6135 21.6492 39.6003C21.8539 39.5945 22.0095 39.7664 22.0746 39.9383C22.209 40.2722 22.2302 40.6276 22.2615 40.9797C22.3046 41.4194 22.2353 41.869 22.0839 42.2848C22.0112 42.4947 21.9452 42.7129 21.8006 42.8873C21.7794 42.9443 21.7642 42.9584 21.7185 42.9956L21.7194 42.9964ZM21.6517 42.9468C21.672 42.8931 21.6763 42.8799 21.7185 42.8377C21.7439 42.803 21.7549 42.7592 21.7727 42.7204C22.0898 42.203 22.2361 41.588 22.1786 40.9872C22.1651 40.8136 22.1498 40.64 22.1236 40.4689C22.0805 40.2243 22.0424 39.9507 21.864 39.7681C21.5841 39.5449 21.4699 39.8044 21.3634 40.0425C21.1054 40.6896 20.9803 41.3839 20.7849 42.0534C20.7426 42.2195 20.6648 42.3798 20.6471 42.5509C20.6166 43.0758 20.9135 43.5427 21.0894 44.0287L21.0082 44.037L21.0369 43.8766C21.0961 43.6105 21.1908 43.3336 21.404 43.146C21.4784 43.0741 21.5909 43.0245 21.6517 42.9485V42.9468ZM16.7307 8.88875C16.7307 8.88875 16.428 10.398 17.2246 11.0509C18.0204 11.7047 18.2597 11.9063 18.4187 11.9063C18.5777 11.9063 19.1189 11.7667 19.3735 11.9063C19.3735 11.9063 18.6893 11.0352 18.4982 10.5682C18.3071 10.1012 17.9916 10.1236 17.6703 10.1012C17.2246 10.0698 16.7307 8.88792 16.7307 8.88792V8.88875Z" stroke="#EAD296" stroke-width="0.5"/>
</svg>
