<svg width="24" height="26" viewBox="0 0 24 26" fill="none" xmlns="http://www.w3.org/2000/svg">
<path d="M21.7825 18.8864C21.5453 18.7449 21.2384 18.8225 21.0969 19.0596C20.9554 19.2967 21.0329 19.6037 21.2701 19.7452L21.7825 18.8864ZM2.72992 19.7452C2.96706 19.6037 3.04459 19.2967 2.90309 19.0596C2.7616 18.8225 2.45466 18.7449 2.21752 18.8864L2.72992 19.7452ZM12.3297 22.3082L12.0989 21.8647L12.3297 22.3082ZM11.6723 22.3082L11.4416 22.7518L11.6723 22.3082ZM21.2701 19.7452C22.1913 20.2949 22.5 20.8178 22.5 21.2105H23.5C23.5 20.2729 22.7921 19.4889 21.7825 18.8864L21.2701 19.7452ZM22.5 21.2105C22.5 21.6032 22.1913 22.1262 21.2701 22.6759L21.7825 23.5346C22.7921 22.9322 23.5 22.1482 23.5 21.2105H22.5ZM21.2701 22.6759C20.3721 23.2117 19.0446 23.6753 17.4025 24.0019L17.5975 24.9827C19.2998 24.6441 20.7496 24.151 21.7825 23.5346L21.2701 22.6759ZM17.4025 24.0019C15.7663 24.3273 13.9024 24.5 12 24.5V25.5C13.9594 25.5 15.8893 25.3225 17.5975 24.9827L17.4025 24.0019ZM12 24.5C10.0976 24.5 8.23373 24.3273 6.59754 24.0019L6.40246 24.9827C8.11069 25.3225 10.0406 25.5 12 25.5V24.5ZM6.59754 24.0019C4.95542 23.6753 3.62791 23.2117 2.72992 22.6759L2.21752 23.5346C3.25044 24.151 4.70016 24.6441 6.40246 24.9827L6.59754 24.0019ZM2.72992 22.6759C1.80866 22.1262 1.5 21.6033 1.5 21.2105H0.5C0.5 22.1482 1.20788 22.9322 2.21752 23.5346L2.72992 22.6759ZM1.5 21.2105C1.5 20.8178 1.80866 20.2949 2.72992 19.7452L2.21752 18.8864C1.20788 19.4889 0.5 20.2729 0.5 21.2105H1.5ZM21.2069 10.4737C21.2069 13.5686 19.4013 16.1839 17.31 18.1694C15.226 20.1478 12.9281 21.4333 12.0989 21.8647L12.5605 22.7518C13.4271 22.3009 15.8177 20.965 17.9985 18.8946C20.1718 16.8313 22.2069 13.9705 22.2069 10.4737H21.2069ZM11.9031 21.8647C11.0739 21.4333 8.77597 20.1478 6.69206 18.1694C4.60075 16.1839 2.79513 13.5686 2.79513 10.4737H1.79513C1.79513 13.9705 3.83021 16.8313 6.00355 18.8946C8.1843 20.965 10.5749 22.3009 11.4416 22.7518L11.9031 21.8647ZM2.79513 10.4737C2.79513 5.1038 7.2343 1.5 12.001 1.5V0.5C6.76162 0.5 1.79513 4.47514 1.79513 10.4737H2.79513ZM12.001 1.5C16.9352 1.5 21.2069 5.09833 21.2069 10.4737H22.2069C22.2069 4.48061 17.4197 0.5 12.001 0.5V1.5ZM12.0989 21.8647C12.0339 21.8985 11.9681 21.8985 11.9031 21.8647L11.4416 22.7518C11.7959 22.9362 12.2061 22.9362 12.5605 22.7518L12.0989 21.8647ZM16.1598 10.7074C16.1598 12.9314 14.3093 14.7548 12.001 14.7548V15.7548C14.8387 15.7548 17.1598 13.5064 17.1598 10.7074H16.1598ZM12.001 14.7548C9.69267 14.7548 7.84219 12.9314 7.84219 10.7074H6.84219C6.84219 13.5064 9.16335 15.7548 12.001 15.7548V14.7548ZM7.84219 10.7074C7.84219 8.48348 9.69267 6.66007 12.001 6.66007V5.66007C9.16335 5.66007 6.84219 7.9085 6.84219 10.7074H7.84219ZM12.001 6.66007C14.3093 6.66007 16.1598 8.48348 16.1598 10.7074H17.1598C17.1598 7.9085 14.8387 5.66007 12.001 5.66007V6.66007Z" fill="#F1EFE7"/>
</svg>
