<svg width="22" height="16" viewBox="0 0 22 16" fill="none" xmlns="http://www.w3.org/2000/svg">
<path d="M20.8926 0.827579L21.2407 0.468629L20.8926 0.82758C21.0232 0.954193 21.1159 1.13564 21.1683 1.51303C21.2228 1.90643 21.2239 2.43119 21.2239 3.2V12.8C21.2239 13.5688 21.2228 14.0936 21.1683 14.487C21.1159 14.8644 21.0232 15.0458 20.8926 15.1724C20.7599 15.3011 20.5664 15.3939 20.1698 15.4456C19.7603 15.499 19.2155 15.5 18.4239 15.5H3.57393C2.78239 15.5 2.23753 15.499 1.82807 15.4456C1.43144 15.3939 1.23799 15.3011 1.10527 15.1724C0.974703 15.0458 0.881922 14.8644 0.829597 14.487C0.775054 14.0936 0.773926 13.5688 0.773926 12.8V3.2C0.773926 2.43119 0.775054 1.90643 0.829597 1.51303C0.881922 1.13564 0.974703 0.954192 1.10527 0.827579C1.23799 0.698881 1.43144 0.606091 1.82807 0.554383C2.23753 0.501 2.78239 0.5 3.57393 0.5H18.4239C19.2155 0.5 19.7603 0.501 20.1698 0.554383C20.5664 0.606091 20.7599 0.698881 20.8926 0.827579Z" stroke="#F1EFE7"/>
</svg>
