<svg width="22" height="16" viewBox="0 0 22 16" fill="none" xmlns="http://www.w3.org/2000/svg">
<path d="M10.025 9.41603L10.0341 9.42094L10.0435 9.42547C10.6457 9.71748 11.3533 9.71748 11.9556 9.42547L11.9649 9.42094L11.974 9.41603L21.2234 4.44728V12.8C21.2234 13.5688 21.2223 14.0936 21.1678 14.487C21.1154 14.8644 21.0227 15.0458 20.8921 15.1724C20.7594 15.3011 20.5659 15.3939 20.1693 15.4456C19.7598 15.499 19.215 15.5 18.4234 15.5H3.57344C2.7819 15.5 2.23705 15.499 1.82758 15.4456C1.43096 15.3939 1.2375 15.3011 1.10478 15.1724C0.974215 15.0458 0.881434 14.8644 0.829109 14.487C0.774565 14.0936 0.773438 13.5688 0.773438 12.8V4.44587L10.025 9.41603ZM21.2234 3.2V4.41685L20.7629 3.55953L11.5108 8.52975C11.1887 8.68272 10.8104 8.68272 10.4883 8.52975L1.23663 3.55954L0.773438 4.42173V3.2C0.773438 2.43119 0.774565 1.90643 0.829109 1.51303C0.881434 1.13564 0.974215 0.954192 1.10478 0.827579C1.2375 0.698881 1.43096 0.606091 1.82758 0.554383C2.23705 0.501 2.7819 0.5 3.57344 0.5H18.4234C19.215 0.5 19.7598 0.501 20.1693 0.554383C20.5659 0.606091 20.7594 0.698881 20.8921 0.827579C21.0227 0.954193 21.1154 1.13564 21.1678 1.51303C21.2223 1.90643 21.2234 2.43119 21.2234 3.2Z" stroke="#F1EFE7"/>
</svg>
