<svg width="24" height="24" viewBox="0 0 24 24" fill="none" xmlns="http://www.w3.org/2000/svg">
<path d="M2.67963 2.65371L3.62623 1.70711C4.01675 1.31658 4.64992 1.31658 5.04044 1.70711L8.95956 5.62623C9.35008 6.01675 9.35008 6.64992 8.95956 7.04044L7.36233 8.63767C7.14595 8.85405 7.09231 9.18461 7.22916 9.45831C8.81137 12.6227 11.3773 15.1886 14.5417 16.7708C14.8154 16.9077 15.146 16.8541 15.3623 16.6377L16.9596 15.0404C17.3501 14.6499 17.9832 14.6499 18.3738 15.0404L22.2929 18.9596C22.6834 19.3501 22.6834 19.9832 22.2929 20.3738L21.3463 21.3204C19.2349 23.4317 15.8924 23.6693 13.5037 21.8777L9.62857 18.9714C7.88504 17.6638 6.33622 16.115 5.02857 14.3714L2.12226 10.4964C0.330722 8.10763 0.568274 4.76506 2.67963 2.65371Z" stroke="#D3CCC4"/>
</svg>
